# xmcd
#
# Track frame offsets:
# 150
# 12498
# 26888
# 44983
# 57880
# 70105
# 83520
# 96373
# 111088
# 126908
# 139450
# 155800
# 170908
# 186703
# 200568
# 214195
#
# Disc length: 3026 seconds
#
#
# Revision: 0
# Processed by: cddbd v1.5.2PL0 Copyright (c) Steve Scherf et al.
# Submitted via: FreeRIP 2.944 
#
DISCID=030bd010
DTITLE=Cacique e Pajé - Som da terra
DYEAR=1994
DGENRE=Musical
TTITLE0=Peão sabido
TTITLE1=Abrindo picada
TTITLE2=Vara de ferrão
TTITLE3=O milagre do batismo
TTITLE4=Viola no samba
TTITLE5=Bonito de santa fé (pedaço da minha vida)
TTITLE6=Pensando eu vejo
TTITLE7=Rainha da festa
TTITLE8=Laço da saudade
TTITLE9=Puro brasileiro
TTITLE10=Rainha da flora
TTITLE11=O grito
TTITLE12=Mosca branca
TTITLE13=Minha palhoça
TTITLE14=Princesa encantada
TTITLE15=Pescador caprichoso
EXTD=
EXTT0=
EXTT1=
EXTT2=
EXTT3=
EXTT4=
EXTT5=
EXTT6=
EXTT7=
EXTT8=
EXTT9=
EXTT10=
EXTT11=
EXTT12=
EXTT13=
EXTT14=
EXTT15=
PLAYORDER=
